<svg preserveAspectRatio="xMinYMin meet" xmlns="http://www.w3.org/2000/svg" viewBox="0 0 572.9 157.5"><g fill="#8C8C8C"><path d="M309.1 156h-4.6l.2-1h-.1c-1 .9-2.2 1.4-3.8 1.4-3.4 0-5.9-2.6-5.9-6.6 0-2.5 1-5 2.8-6.9 1.6-1.6 4-2.5 6.6-2.5 2.6 0 5.1.8 7.2 1.8l-2.4 13.8zm-2.8-11.2c-.6-.3-1.5-.5-2.4-.5-1.5 0-2.4.7-3.1 1.4-.8.9-1.2 2.3-1.2 3.5 0 2.1 1.1 3.3 2.8 3.3 1 0 1.9-.4 2.7-1.1l1.2-6.6zM314.6 140.7h4.6l-.2 1.4h.1c1.6-1.4 3.4-1.8 4.7-1.8 3 0 4.7 1.9 4.7 4.8 0 .5-.1 1.1-.2 1.9l-1.6 9H322l1.5-8.7c.1-.3.1-.8.1-1.1 0-1-.6-1.8-1.9-1.8-1.1 0-2.4.5-3.3 1.3l-1.8 10.3h-4.7l2.7-15.3zM338.8 133.2h6.5l-4 22.8h-6.5l4-22.8zM348.7 133.2h6.5l-4 22.8h-6.5l4-22.8zM364.2 138.7H357l1-5.5h20.8l-1 5.5h-7.2l-3.1 17.4H361l3.2-17.4zM380.2 140.7h4.7l-2.7 15.3h-4.7l2.7-15.3zm3.3-7.5c1.5 0 2.6 1.2 2.6 2.6 0 1.7-1.3 2.9-3 2.9-1.5 0-2.6-1.2-2.6-2.6.1-1.7 1.4-2.9 3-2.9zM400 156h-4.6l.2-1h-.1c-1 .9-2.2 1.4-3.8 1.4-3.4 0-5.9-2.6-5.9-6.6 0-2.5 1-5 2.8-6.9 1.7-1.6 4-2.5 6.6-2.5 2.6 0 5.1.8 7.2 1.8L400 156zm-2.8-11.2c-.6-.3-1.5-.5-2.4-.5-1.5 0-2.4.7-3.1 1.4-.8.9-1.2 2.3-1.2 3.5 0 2.1 1.1 3.3 2.8 3.3 1 0 1.9-.4 2.7-1.1l1.2-6.6zM405.5 140.7h4.6l-.2 1.4h.1c1.6-1.4 3.4-1.8 4.7-1.8 3 0 4.7 1.9 4.7 4.8 0 .5-.1 1.1-.2 1.9l-1.6 9h-4.7l1.5-8.7c.1-.3.1-.8.1-1.1 0-1-.6-1.8-1.9-1.8-1.1 0-2.4.5-3.3 1.3l-1.8 10.3h-4.7l2.7-15.3zM431.7 133.5h4.9l-4 22.5h-4.9l4-22.5zM438.5 140.7h4.6l-.2 1.4h.1c1.6-1.4 3.4-1.8 4.7-1.8 3 0 4.7 1.9 4.7 4.8 0 .5-.1 1.1-.2 1.9l-1.6 9h-4.7l1.5-8.7c.1-.3.1-.8.1-1.1 0-1-.6-1.8-1.9-1.8-1.1 0-2.4.5-3.3 1.3l-1.8 10.3h-4.7l2.7-15.3zM456.4 140.7h4.7l-2.7 15.3h-4.7l2.7-15.3zm3.4-7.5c1.5 0 2.6 1.2 2.6 2.6 0 1.6-1.3 2.8-2.9 2.8-1.5 0-2.6-1.2-2.6-2.6 0-1.6 1.3-2.8 2.9-2.8zM463.9 149.8l.9-5.1h-2.5l.7-3.9h2.5l.7-4.2 4.8-.3-.8 4.5h4l-.7 3.9h-4l-.9 5c-.1.3-.1.8-.1 1.1 0 1.1.6 1.7 1.7 1.7.7 0 1.4-.2 2-.5l-.7 4.1c-.7.2-1.6.4-2.6.4-2.7 0-5.3-1.3-5.3-4.6 0-.7.1-1.4.3-2.1zM476.3 140.7h4.7l-2.7 15.3h-4.7l2.7-15.3zm3.4-7.5c1.5 0 2.6 1.2 2.6 2.6 0 1.6-1.3 2.8-2.9 2.8-1.5 0-2.6-1.2-2.6-2.6 0-1.6 1.3-2.8 2.9-2.8zM496.1 156h-4.6l.2-1h-.1c-1 .9-2.2 1.4-3.8 1.4-3.4 0-5.9-2.6-5.9-6.6 0-2.5 1-5 2.8-6.9 1.7-1.6 4-2.5 6.6-2.5 2.6 0 5.1.8 7.2 1.8l-2.4 13.8zm-2.8-11.2c-.6-.3-1.5-.5-2.4-.5-1.5 0-2.4.7-3.1 1.4-.8.9-1.2 2.3-1.2 3.5 0 2.1 1.1 3.3 2.8 3.3 1 0 1.9-.4 2.7-1.1l1.2-6.6zM501.6 149.8l.9-5.1H500l.7-3.9h2.5l.7-4.2 4.8-.3-.8 4.5h4l-.7 3.9h-4l-.9 5c-.1.3-.1.8-.1 1.1 0 1.1.6 1.7 1.7 1.7.7 0 1.4-.2 2-.5l-.7 4.1c-.7.2-1.6.4-2.6.4-2.7 0-5.3-1.3-5.3-4.6l.3-2.1zM514.1 140.7h4.7l-2.7 15.3h-4.7l2.7-15.3zm3.4-7.5c1.5 0 2.6 1.2 2.6 2.6 0 1.6-1.3 2.8-2.9 2.8-1.5 0-2.6-1.2-2.6-2.6 0-1.6 1.3-2.8 2.9-2.8zM520.1 140.7h4.8l1 5.1c.3 1.6.6 3.1.8 4.6h.1c.8-1.6 1.7-3.1 2.6-4.7l2.7-5h4.9l-9 15.3h-4.5l-3.4-15.3zM538.1 142.9c1.6-1.6 3.7-2.5 6-2.5 3.6 0 6.8 2.2 6.8 6.4 0 .8-.1 2-.4 2.8h-10.4c.2 2.1 1.8 3.1 3.9 3.1 1.7 0 3.8-.7 5.2-1.4l-.8 4.1c-1.4.6-3.3 1-5 1-4.2 0-7.9-2.2-7.9-6.9 0-2.4.9-4.9 2.6-6.6zm2.4 3.7h6.1c0-1.7-1.1-2.6-2.7-2.6s-2.8 1.1-3.4 2.6z"/></g><path fill="#0B4B68" d="M409.5 59.1c-9.9 0-18.9 3.3-25.4 9.7-6.6 6.5-9.9 15.6-9.9 24 0 10 4.7 17.6 12 22.1 4-6 10.6-9.5 19-9.1 7.2.4 13.3 4.6 16.6 10.3 3.2-1.5 6-3.5 8.5-6 6.6-6.5 9.9-15.6 9.9-24 0-17-13.6-27-30.7-27zm8.8 30.4c-.6 6.7-4.9 11.3-11.1 11.4-7.6.1-11.5-4.9-11.1-11.4.4-6.3 5-11.3 11.1-11.4 7.9 0 11.6 5.2 11.1 11.4zM506.8 77.4c0 2-.2 4.1-.6 6.3l-6.1 34.8h-23.4l5.8-32.8c.1-.6.2-1.5.2-2.2 0-3-1.8-5.1-5.3-5.1-2.5 0-5.2.9-7.6 2.7l-6.6 37.4H440s7.3-41.2 7.5-43c.6-5 .5-6.9.4-8.5-.1-2.1-.5-3.9-.5-3.9l24.6-3.3s.5 1 .7 3.3c.1 1.1 0 1.5 0 1.5 5.7-4.4 10.5-5.5 15.5-5.5 11.5 0 18.6 7.8 18.6 18.3zM520.6 67.5c5.8-5.2 13.8-8.4 22.8-8.4 14.1 0 27.9 9.6 25.2 24.8-1.7 9.5-8.5 12.2-20.7 13.9-9 1.3-16.8-.3-16.8-.3.7 3.2 2 5.5 10.4 6.2 8.3.7 16.6-.7 22.6-3.1l-3.8 16.3c-4.6 2-11.6 3.1-18.9 2.9-17.4-.5-32.1-8-32.1-26.2-.2-9.4 3.7-19.4 11.3-26.1zm11 15.3s14.7 2.6 17.8-2c2.6-3.8-2.9-7-8.5-5.4-4.2 1.2-7.7 3.4-9.3 7.4z"/><g fill="#0B4B68"><path d="M34 119.5l-6.3-39.8L4 119.5zM86.2 74.8L74.4 1.1 30.5 74.8z"/></g><g fill="#80ADB7"><path d="M137 119.5l-2.2-14.6h-25.6l-8.4 14.6H87.6l43.8-73h4.1l14.8 73H137zm-7.7-50.8l-14.7 26.7h18.8l-4.1-26.7zM189.2 81.5c-3.9-3.4-7.5-5.1-10.7-5.1-2 0-3.8.5-5.2 1.4-1.5.9-2.2 2.2-2.2 3.7 0 1.9 1.8 3.8 5.3 5.6 3.5 1.8 6.2 3.2 8.1 4.3 1.9 1.1 3.4 2.5 4.6 4.3 1.2 1.8 1.8 3.9 1.8 6.2 0 5.8-2.2 10.3-6.5 13.6-4.3 3.3-9.8 5-16.5 5-5.7 0-11.3-1.6-16.8-4.8l6.4-11.1c4.1 3.8 8.1 5.8 12 5.8 2.5 0 4.5-.6 6.1-1.9s2.4-2.9 2.4-5c0-1.8-1.5-3.4-4.6-5-3.1-1.6-5.8-3.1-8.1-4.4s-4.1-2.9-5.3-4.8-1.8-4-1.8-6.3c0-5.1 2-9.1 6.1-12.1s9-4.5 14.9-4.5c4 0 9.3 1.4 15.7 4.1l-5.7 11zM206.4 118l-3.9 21.9h-12.2l10.5-56.6c.4-2.1.6-4.2.6-6.3 0-2.9-.3-5.7-.9-8.6l11.9-2.1c.5 1.2.8 2.9 1.1 5 4.5-3.4 9-5 13.5-5 14 0 20.9 6.8 20.9 20.3 0 9.9-2.9 18.1-8.6 24.4-5.7 6.3-13.3 9.5-22.7 9.5-3.7-.1-7.1-.9-10.2-2.5zm1.9-10.4c1.6 1.7 4 2.5 7.1 2.5 6.4 0 11.3-1.9 14.7-5.8 3.4-3.9 5.1-9.4 5.1-16.6 0-3.3-1-6-3.1-8s-4.9-3-8.4-3c-1.6 0-3.5.5-5.6 1.6-2.2 1.1-3.8 2.2-4.9 3.5l-4.9 25.8zM264.7 119.5h-12.4l7.9-42.5h-6.7l2.1-9.8h18.9l-9.8 52.3zm-5.8-67.1c0-2.5.9-4.5 2.6-6.2 1.7-1.6 3.9-2.5 6.4-2.5 2.5 0 4.6.8 6.4 2.5 1.8 1.6 2.7 3.7 2.7 6.2 0 2.4-.9 4.5-2.7 6.1-1.8 1.7-3.9 2.5-6.4 2.5-2.5 0-4.6-.8-6.4-2.5-1.7-1.6-2.6-3.7-2.6-6.1zM314.4 79.6c-2.9-2.1-5.5-3.2-7.7-3.2-3.2 0-6 1.4-8.7 4.1-2.6 2.8-4.3 5.9-5 9.4l-5.5 29.5h-12.3l9.8-52.3h12.3l-.8 4.5c4.3-3.7 9.1-5.5 14.4-5.5 1.3 0 3.7.3 7.2.9l-3.7 12.6zM327.9 96.7c-.1.8-.1 1.6-.1 2.2 0 3.6 1.1 6.4 3.2 8.4 2.2 2 5.2 2.9 9 2.9 2.1 0 5.2-.7 7.2-1.3 2.3-.6 5.9-2.2 7.4-3.6l-2.7 12.3c-4.1 1.9-9.2 2.8-15.1 2.8-6.4 0-11.7-2-15.7-6.1s-6-9.7-6-16.7c0-9 2.9-16.5 8.7-22.4 5.8-6 13.3-9 22.7-9 5.5 0 10 1.2 13.4 3.5 3.4 2.3 5.1 5.7 5.1 10 0 5.9-2.5 10.5-7.6 13.9-5.1 3.4-11.4 5-18.8 5-3.6 0-7.2-.6-10.7-1.9zm2.4-9.2c2.1.6 4.4.9 6.9.9 4.4 0 8.2-.7 11.2-2 3.1-1.4 4.6-3.3 4.6-5.8 0-2.8-3.1-4.2-9.3-4.2-2.4 0-4.9 1.1-7.5 3.2-2.5 2.1-4.5 4.7-5.9 7.9z"/></g></svg>